# Blender v2.78 (sub 0) OBJ File: ''
# www.blender.org
o a2.000_a2.005
v 33.996998 7.999507 8.853165
v 33.151680 7.999399 8.455395
v 33.863472 0.000632 8.772298
v 32.964588 0.000740 8.399981
v 35.609898 7.999923 12.926925
v 35.727001 7.999998 12.000001
v 35.727009 0.000156 12.000000
v 34.716843 7.999632 9.448656
v 34.635361 0.000515 9.364581
v 35.265976 7.999773 13.795544
v 35.599995 0.000240 12.964675
v 35.265976 7.999774 10.204458
v 35.227657 0.000382 10.136455
v 34.716843 7.999631 14.551346
v 35.227657 0.000381 13.863545
v 35.609898 7.999923 11.073077
v 35.599995 0.000240 11.035325
v 33.996998 7.999506 15.146837
v 34.635361 0.000514 14.635419
v 33.151680 7.999398 15.544607
v 33.863472 0.000631 15.227702
v 32.233994 7.999306 15.719657
v 32.964588 0.000739 15.600019
v 31.301598 7.999223 15.660982
v 31.999975 0.000831 15.727008
v 30.413092 7.999156 15.372287
v 31.035358 0.000906 15.600001
v 29.624300 7.999098 14.871699
v 30.136478 0.000964 15.227677
v 28.984783 7.999056 14.190668
v 29.364599 0.001014 14.635386
v 28.534714 7.999031 13.371995
v 28.772314 0.001048 13.863496
v 28.302383 7.999015 12.467116
v 28.399990 0.001073 12.964617
v 28.272991 0.001081 12.000000
v 28.302383 7.999015 11.532886
v 28.399990 0.001073 11.035383
v 28.534714 7.999032 10.628007
v 28.772314 0.001048 10.136504
v 28.984783 7.999057 9.809334
v 29.624300 7.999099 9.128303
v 29.364599 0.001015 9.364614
v 30.136478 0.000965 8.772323
v 30.413092 7.999157 8.627715
v 31.301598 7.999224 8.339020
v 31.035358 0.000907 8.399999
v 32.233994 7.999307 8.280345
v 31.999975 0.000832 8.272992
v 34.143307 7.999999 8.622689
v 33.236069 7.999999 8.195775
v 34.000000 -0.000001 8.535898
v 33.035275 -0.000001 8.136296
v 35.874332 7.999998 12.994761
v 36.000000 7.999998 12.000001
v 36.000000 -0.000002 12.000000
v 34.915874 7.999999 9.261812
v 34.828426 -0.000001 9.171573
v 35.505226 7.999998 13.927015
v 35.863705 -0.000002 13.035276
v 35.505226 7.999999 10.072987
v 35.464100 -0.000002 10.000000
v 34.915874 7.999998 14.738190
v 35.464100 -0.000002 14.000000
v 35.874332 7.999998 11.005241
v 35.863705 -0.000002 10.964724
v 34.143307 7.999998 15.377313
v 34.828426 -0.000002 14.828427
v 33.236069 7.999998 15.804227
v 34.000000 -0.000003 15.464102
v 32.251163 7.999998 15.992107
v 33.035275 -0.000003 15.863704
v 31.250475 7.999998 15.929150
v 32.000000 -0.000003 16.000000
v 30.296883 7.999998 15.619309
v 30.964724 -0.000003 15.863704
v 29.450304 7.999998 15.082054
v 30.000000 -0.000003 15.464102
v 28.763931 7.999998 14.351142
v 29.171574 -0.000002 14.828427
v 28.280893 7.999998 13.472499
v 28.535898 -0.000002 14.000000
v 28.031542 7.999998 12.501334
v 28.136297 -0.000002 13.035276
v 28.000000 -0.000002 12.000000
v 28.031542 7.999998 11.498668
v 28.136297 -0.000002 10.964724
v 28.280893 7.999998 10.527503
v 28.535898 -0.000002 10.000000
v 28.763931 7.999999 9.648860
v 29.450304 7.999999 8.917948
v 29.171574 -0.000001 9.171573
v 30.000000 -0.000001 8.535898
v 30.296883 7.999999 8.380692
v 31.250475 7.999999 8.070852
v 30.964724 -0.000001 8.136296
v 32.251163 7.999999 8.007895
v 32.000000 -0.000001 8.000000
vn -0.4258 -0.0020 0.9048
vn -0.3827 0.0026 0.9239
vn -0.9921 -0.0000 -0.1253
vn -0.6374 -0.0016 0.7705
vn -0.6088 0.0021 0.7934
vn -0.9298 -0.0006 -0.3681
vn -0.9914 0.0006 -0.1305
vn -0.8090 -0.0011 0.5878
vn -0.7933 0.0017 0.6088
vn -0.8090 -0.0011 -0.5878
vn -0.9239 0.0012 -0.3827
vn -0.9298 -0.0006 0.3681
vn -0.9239 0.0012 0.3827
vn -0.6374 -0.0016 -0.7705
vn -0.9921 -0.0000 0.1253
vn -0.7933 0.0017 -0.6088
vn -0.9914 0.0006 0.1305
vn -0.4258 -0.0020 -0.9048
vn -0.6088 0.0021 -0.7934
vn -0.1874 -0.0024 -0.9823
vn -0.3827 0.0026 -0.9239
vn 0.0628 -0.0028 -0.9980
vn -0.1305 0.0029 -0.9914
vn 0.3090 -0.0030 -0.9511
vn 0.1305 0.0032 -0.9914
vn 0.5358 -0.0033 -0.8443
vn 0.3827 0.0035 -0.9239
vn 0.7290 -0.0034 -0.6845
vn 0.6088 0.0037 -0.7933
vn 0.8763 -0.0036 -0.4818
vn 0.7934 0.0038 -0.6088
vn 0.9686 -0.0036 -0.2487
vn 0.9239 0.0039 -0.3827
vn 0.9914 0.0040 -0.1305
vn 1.0000 -0.0037 0.0000
vn 0.9914 0.0040 0.1305
vn 0.9686 -0.0036 0.2487
vn 0.9239 0.0039 0.3827
vn 0.8763 -0.0036 0.4818
vn 0.7290 -0.0034 0.6845
vn 0.7934 0.0038 0.6088
vn 0.6088 0.0037 0.7933
vn 0.5358 -0.0033 0.8443
vn 0.3090 -0.0030 0.9511
vn 0.3827 0.0035 0.9239
vn 0.0628 -0.0028 0.9980
vn 0.1305 0.0032 0.9914
vn -0.1874 -0.0024 0.9823
vn -0.1305 0.0029 0.9914
vn 0.4258 0.0022 -0.9048
vn 0.3827 -0.0027 -0.9239
vn 0.9921 0.0000 0.1253
vn 0.6374 0.0017 -0.7705
vn 0.6088 -0.0023 -0.7934
vn 0.9298 0.0006 0.3681
vn 0.9914 -0.0007 0.1305
vn 0.8090 0.0012 -0.5878
vn 0.7934 -0.0018 -0.6088
vn 0.8090 0.0012 0.5878
vn 0.9239 -0.0013 0.3827
vn 0.9298 0.0006 -0.3681
vn 0.9239 -0.0013 -0.3827
vn 0.6374 0.0017 0.7705
vn 0.9921 0.0000 -0.1253
vn 0.7934 -0.0018 0.6088
vn 0.9914 -0.0007 -0.1305
vn 0.4258 0.0022 0.9048
vn 0.6088 -0.0023 0.7934
vn 0.1874 0.0026 0.9823
vn 0.3827 -0.0027 0.9239
vn -0.0628 0.0030 0.9980
vn 0.1305 -0.0031 0.9914
vn -0.3090 0.0033 0.9511
vn -0.1305 -0.0034 0.9914
vn -0.5358 0.0035 0.8443
vn -0.3827 -0.0037 0.9239
vn -0.7290 0.0037 0.6845
vn -0.6088 -0.0039 0.7933
vn -0.8763 0.0038 0.4818
vn -0.7933 -0.0041 0.6088
vn -0.9686 0.0039 0.2487
vn -0.9239 -0.0042 0.3827
vn -0.9914 -0.0043 0.1305
vn -1.0000 0.0039 0.0000
vn -0.9914 -0.0043 -0.1305
vn -0.9686 0.0039 -0.2487
vn -0.9239 -0.0042 -0.3827
vn -0.8763 0.0038 -0.4817
vn -0.7290 0.0037 -0.6845
vn -0.7933 -0.0041 -0.6088
vn -0.6088 -0.0039 -0.7933
vn -0.5358 0.0035 -0.8443
vn -0.3090 0.0033 -0.9511
vn -0.3827 -0.0037 -0.9239
vn -0.0628 0.0030 -0.9980
vn -0.1305 -0.0034 -0.9914
vn 0.1874 0.0026 -0.9823
vn 0.1305 -0.0031 -0.9914
vn -0.0007 -1.0000 -0.0001
vn 0.0004 -1.0000 -0.0032
vn -0.0010 -1.0000 -0.0023
vn -0.0001 1.0000 -0.0000
vn -0.0013 -1.0000 0.0016
vn -0.0009 1.0000 0.0006
vn 0.0009 1.0000 -0.0028
vn 0.0030 -1.0000 0.0023
vn 0.0031 1.0000 0.0017
vn -0.0007 -1.0000 0.0001
vn -0.0014 -1.0000 0.0010
vn -0.0004 -1.0000 -0.0029
vn 0.0017 1.0000 -0.0027
vn 0.0017 1.0000 0.0027
vn -0.0011 1.0000 -0.0012
vn 0.0035 1.0000 0.0009
vn -0.0005 1.0000 -0.0023
vn 0.0022 -1.0000 0.0029
vn -0.0005 1.0000 0.0001
vn 0.0025 1.0000 -0.0023
vn 0.0013 -1.0000 0.0032
vn 0.0001 1.0000 -0.0027
vn 0.0036 -1.0000 0.0015
vn -0.0011 -1.0000 0.0004
vn -0.0011 1.0000 0.0012
vn 0.0013 -1.0000 -0.0032
vn -0.0004 -1.0000 0.0029
vn -0.0009 1.0000 -0.0006
vn 0.0036 -1.0000 -0.0015
vn -0.0014 -1.0000 -0.0010
vn 0.0035 1.0000 -0.0009
vn 0.0004 -1.0000 0.0032
vn 0.0030 -1.0000 -0.0023
vn 0.0009 1.0000 0.0028
vn -0.0005 1.0000 0.0023
vn 0.0036 1.0000 0.0000
vn 0.0022 -1.0000 -0.0029
vn -0.0005 1.0000 -0.0001
vn -0.0011 -1.0000 -0.0004
vn 0.0040 -1.0000 0.0005
vn -0.0009 1.0000 0.0018
vn 0.0040 -1.0000 -0.0005
vn -0.0009 1.0000 -0.0018
vn 0.0001 1.0000 0.0027
vn 0.0031 1.0000 -0.0017
vn 0.0025 1.0000 0.0023
vn -0.0013 -1.0000 -0.0017
vn -0.0010 -1.0000 0.0023
s off
f 1//1 2//1 3//1
f 2//2 4//2 3//2
f 5//3 6//3 7//3
f 8//4 1//4 9//4
f 1//5 3//5 9//5
f 10//6 5//6 11//6
f 5//7 7//7 11//7
f 12//8 8//8 13//8
f 8//9 9//9 13//9
f 14//10 10//10 15//10
f 10//11 11//11 15//11
f 16//12 12//12 17//12
f 12//13 13//13 17//13
f 18//14 14//14 19//14
f 6//15 16//15 7//15
f 14//16 15//16 19//16
f 16//17 17//17 7//17
f 20//18 18//18 21//18
f 18//19 19//19 21//19
f 22//20 20//20 23//20
f 20//21 21//21 23//21
f 24//22 22//22 25//22
f 22//23 23//23 25//23
f 26//24 24//24 27//24
f 24//25 25//25 27//25
f 28//26 26//26 29//26
f 26//27 27//27 29//27
f 30//28 28//28 31//28
f 28//29 29//29 31//29
f 32//30 30//30 33//30
f 30//31 31//31 33//31
f 34//32 32//32 35//32
f 32//33 33//33 35//33
f 34//34 35//34 36//34
f 37//35 34//35 36//35
f 37//36 36//36 38//36
f 39//37 37//37 38//37
f 39//38 38//38 40//38
f 41//39 39//39 40//39
f 42//40 41//40 43//40
f 41//41 40//41 43//41
f 42//42 43//42 44//42
f 45//43 42//43 44//43
f 46//44 45//44 47//44
f 45//45 44//45 47//45
f 48//46 46//46 49//46
f 46//47 47//47 49//47
f 2//48 48//48 4//48
f 48//49 49//49 4//49
f 50//50 52//50 51//50
f 51//51 52//51 53//51
f 54//52 56//52 55//52
f 57//53 58//53 50//53
f 50//54 58//54 52//54
f 59//55 60//55 54//55
f 54//56 60//56 56//56
f 61//57 62//57 57//57
f 57//58 62//58 58//58
f 63//59 64//59 59//59
f 59//60 64//60 60//60
f 65//61 66//61 61//61
f 61//62 66//62 62//62
f 67//63 68//63 63//63
f 55//64 56//64 65//64
f 63//65 68//65 64//65
f 65//66 56//66 66//66
f 69//67 70//67 67//67
f 67//68 70//68 68//68
f 71//69 72//69 69//69
f 69//70 72//70 70//70
f 73//71 74//71 71//71
f 71//72 74//72 72//72
f 75//73 76//73 73//73
f 73//74 76//74 74//74
f 77//75 78//75 75//75
f 75//76 78//76 76//76
f 79//77 80//77 77//77
f 77//78 80//78 78//78
f 81//79 82//79 79//79
f 79//80 82//80 80//80
f 83//81 84//81 81//81
f 81//82 84//82 82//82
f 83//83 85//83 84//83
f 86//84 85//84 83//84
f 86//85 87//85 85//85
f 88//86 87//86 86//86
f 88//87 89//87 87//87
f 90//88 89//88 88//88
f 91//89 92//89 90//89
f 90//90 92//90 89//90
f 91//91 93//91 92//91
f 94//92 93//92 91//92
f 95//93 96//93 94//93
f 94//94 96//94 93//94
f 97//95 98//95 95//95
f 95//96 98//96 96//96
f 51//97 53//97 97//97
f 97//98 53//98 98//98
f 11//99 7//99 56//99 60//99
f 27//100 25//100 74//100 76//100
f 23//101 21//101 70//101 72//101
f 16//102 6//102 55//102 65//102
f 6//102 5//102 54//102 55//102
f 9//103 3//103 52//103 58//103
f 8//104 12//104 61//104 57//104
f 24//105 26//105 75//105 73//105
f 43//106 40//106 89//106 92//106
f 39//107 41//107 90//107 88//107
f 7//108 17//108 66//108 56//108
f 13//109 9//109 58//109 62//109
f 25//110 23//110 72//110 74//110
f 26//111 28//111 77//111 75//111
f 42//112 45//112 94//112 91//112
f 14//113 18//113 67//113 63//113
f 37//114 39//114 88//114 86//114
f 20//115 22//115 71//115 69//115
f 44//116 43//116 92//116 93//116
f 12//117 16//117 65//117 61//117
f 28//118 30//118 79//118 77//118
f 47//119 44//119 93//119 96//119
f 22//120 24//120 73//120 71//120
f 40//121 38//121 87//121 89//121
f 17//122 13//122 62//122 66//122
f 1//123 8//123 57//123 50//123
f 29//124 27//124 76//124 78//124
f 4//125 49//125 98//125 53//125
f 10//126 14//126 63//126 59//126
f 35//127 33//127 82//127 84//127
f 19//128 15//128 64//128 68//128
f 32//129 34//129 83//129 81//129
f 49//130 47//130 96//130 98//130
f 33//131 31//131 80//131 82//131
f 45//132 46//132 95//132 94//132
f 48//133 2//133 51//133 97//133
f 34//134 37//134 86//134 83//134
f 31//135 29//135 78//135 80//135
f 5//136 10//136 59//136 54//136
f 15//137 11//137 60//137 64//137
f 38//138 36//138 85//138 87//138
f 2//139 1//139 50//139 51//139
f 36//140 35//140 84//140 85//140
f 18//141 20//141 69//141 67//141
f 46//142 48//142 97//142 95//142
f 30//143 32//143 81//143 79//143
f 41//144 42//144 91//144 90//144
f 21//145 19//145 68//145 70//145
f 3//146 4//146 53//146 52//146
